<mxfile host="app.diagrams.net" agent="Mozilla/5.0 (Windows NT 10.0; Win64; x64) AppleWebKit/537.36 (KHTML, like Gecko) Chrome/129.0.0.0 Safari/537.36" version="27.1.4">
  <diagram id="gwUhwwIQdEspnQJv_WbK" name="Pagina-1">
    <mxGraphModel dx="1699" dy="1652" grid="1" gridSize="10" guides="1" tooltips="1" connect="1" arrows="1" fold="1" page="1" pageScale="1" pageWidth="827" pageHeight="1169" math="0" shadow="0">
      <root>
        <mxCell id="0" />
        <mxCell id="1" parent="0" />
        <mxCell id="FgpJdpsvdST_ZWDqFQEa-1" value="Utente" style="shape=umlActor;verticalLabelPosition=bottom;verticalAlign=top;html=1;outlineConnect=0;" parent="1" vertex="1">
          <mxGeometry x="-351.25" y="-150" width="30" height="60" as="geometry" />
        </mxCell>
        <mxCell id="FgpJdpsvdST_ZWDqFQEa-4" value="" style="endArrow=none;dashed=1;html=1;rounded=0;" parent="1" source="WTWF-vKirUXl5wXtsg50-43" target="FgpJdpsvdST_ZWDqFQEa-1" edge="1">
          <mxGeometry width="50" height="50" relative="1" as="geometry">
            <mxPoint x="-336.25" y="611" as="sourcePoint" />
            <mxPoint x="-321.25" y="191" as="targetPoint" />
            <Array as="points" />
          </mxGeometry>
        </mxCell>
        <mxCell id="FgpJdpsvdST_ZWDqFQEa-5" value="controller personalizza profilo" style="rounded=0;whiteSpace=wrap;html=1;" parent="1" vertex="1">
          <mxGeometry x="260" y="-140" width="120" height="60" as="geometry" />
        </mxCell>
        <mxCell id="FgpJdpsvdST_ZWDqFQEa-6" value="" style="endArrow=none;dashed=1;html=1;rounded=0;" parent="1" source="WTWF-vKirUXl5wXtsg50-3" target="FgpJdpsvdST_ZWDqFQEa-5" edge="1">
          <mxGeometry width="50" height="50" relative="1" as="geometry">
            <mxPoint x="320" y="630" as="sourcePoint" />
            <mxPoint x="319.5" y="80" as="targetPoint" />
          </mxGeometry>
        </mxCell>
        <mxCell id="FgpJdpsvdST_ZWDqFQEa-7" value="&lt;div&gt;&lt;span style=&quot;background-color: transparent; color: light-dark(rgb(0, 0, 0), rgb(255, 255, 255));&quot;&gt;:utente&lt;/span&gt;&lt;br&gt;&lt;/div&gt;" style="rounded=0;whiteSpace=wrap;html=1;" parent="1" vertex="1">
          <mxGeometry x="540" y="-140" width="120" height="60" as="geometry" />
        </mxCell>
        <mxCell id="FgpJdpsvdST_ZWDqFQEa-10" value="" style="endArrow=none;dashed=1;html=1;rounded=0;entryX=0.5;entryY=1;entryDx=0;entryDy=0;" parent="1" source="WTWF-vKirUXl5wXtsg50-8" target="FgpJdpsvdST_ZWDqFQEa-7" edge="1">
          <mxGeometry width="50" height="50" relative="1" as="geometry">
            <mxPoint x="599.5" y="320" as="sourcePoint" />
            <mxPoint x="599.5" y="70" as="targetPoint" />
          </mxGeometry>
        </mxCell>
        <mxCell id="WTWF-vKirUXl5wXtsg50-1" value="" style="endArrow=classic;html=1;rounded=0;" parent="1" edge="1">
          <mxGeometry width="50" height="50" relative="1" as="geometry">
            <mxPoint x="50" y="-27.5" as="sourcePoint" />
            <mxPoint x="310" y="-27.5" as="targetPoint" />
          </mxGeometry>
        </mxCell>
        <mxCell id="WTWF-vKirUXl5wXtsg50-2" value="Richiesta POST" style="text;html=1;align=center;verticalAlign=middle;whiteSpace=wrap;rounded=0;" parent="1" vertex="1">
          <mxGeometry x="110" y="-58.5" width="140" height="30" as="geometry" />
        </mxCell>
        <mxCell id="WTWF-vKirUXl5wXtsg50-4" value="" style="endArrow=classic;html=1;rounded=0;" parent="1" edge="1">
          <mxGeometry width="50" height="50" relative="1" as="geometry">
            <mxPoint x="350" y="150" as="sourcePoint" />
            <mxPoint x="550" y="150" as="targetPoint" />
          </mxGeometry>
        </mxCell>
        <mxCell id="WTWF-vKirUXl5wXtsg50-5" value="new Utenti()" style="text;html=1;align=center;verticalAlign=middle;whiteSpace=wrap;rounded=0;" parent="1" vertex="1">
          <mxGeometry x="380" y="120" width="140" height="30" as="geometry" />
        </mxCell>
        <mxCell id="WTWF-vKirUXl5wXtsg50-7" value="0" style="text;html=1;align=center;verticalAlign=middle;whiteSpace=wrap;rounded=0;" parent="1" vertex="1">
          <mxGeometry x="380" y="176" width="140" height="30" as="geometry" />
        </mxCell>
        <mxCell id="WTWF-vKirUXl5wXtsg50-9" value="" style="endArrow=none;dashed=1;html=1;rounded=0;" parent="1" source="WTWF-vKirUXl5wXtsg50-21" target="WTWF-vKirUXl5wXtsg50-8" edge="1">
          <mxGeometry width="50" height="50" relative="1" as="geometry">
            <mxPoint x="600" y="630" as="sourcePoint" />
            <mxPoint x="599.5" y="70" as="targetPoint" />
          </mxGeometry>
        </mxCell>
        <mxCell id="WTWF-vKirUXl5wXtsg50-8" value="" style="rounded=0;whiteSpace=wrap;html=1;rotation=90;" parent="1" vertex="1">
          <mxGeometry x="572.5" y="156" width="55" height="20" as="geometry" />
        </mxCell>
        <mxCell id="WTWF-vKirUXl5wXtsg50-12" value="" style="endArrow=classic;html=1;rounded=0;" parent="1" edge="1">
          <mxGeometry width="50" height="50" relative="1" as="geometry">
            <mxPoint x="350" y="241" as="sourcePoint" />
            <mxPoint x="550" y="241" as="targetPoint" />
          </mxGeometry>
        </mxCell>
        <mxCell id="WTWF-vKirUXl5wXtsg50-13" value="connectToDatabase()" style="text;html=1;align=center;verticalAlign=middle;whiteSpace=wrap;rounded=0;" parent="1" vertex="1">
          <mxGeometry x="380" y="211" width="140" height="30" as="geometry" />
        </mxCell>
        <mxCell id="WTWF-vKirUXl5wXtsg50-15" value="0" style="text;html=1;align=center;verticalAlign=middle;whiteSpace=wrap;rounded=0;" parent="1" vertex="1">
          <mxGeometry x="380" y="269" width="140" height="30" as="geometry" />
        </mxCell>
        <mxCell id="WTWF-vKirUXl5wXtsg50-16" value="" style="rounded=0;whiteSpace=wrap;html=1;rotation=90;" parent="1" vertex="1">
          <mxGeometry x="572.5" y="241" width="55" height="20" as="geometry" />
        </mxCell>
        <mxCell id="WTWF-vKirUXl5wXtsg50-17" value="" style="endArrow=classic;html=1;rounded=0;" parent="1" edge="1">
          <mxGeometry width="50" height="50" relative="1" as="geometry">
            <mxPoint x="350" y="418" as="sourcePoint" />
            <mxPoint x="550" y="418" as="targetPoint" />
          </mxGeometry>
        </mxCell>
        <mxCell id="WTWF-vKirUXl5wXtsg50-18" value="populateFromArray(datiUtente)" style="text;html=1;align=center;verticalAlign=middle;whiteSpace=wrap;rounded=0;" parent="1" vertex="1">
          <mxGeometry x="380" y="388" width="140" height="30" as="geometry" />
        </mxCell>
        <mxCell id="WTWF-vKirUXl5wXtsg50-36" value="pagina HTML" style="rounded=0;whiteSpace=wrap;html=1;" parent="1" vertex="1">
          <mxGeometry x="-30" y="-140" width="120" height="60" as="geometry" />
        </mxCell>
        <mxCell id="WTWF-vKirUXl5wXtsg50-37" value="" style="endArrow=none;dashed=1;html=1;rounded=0;entryX=0.5;entryY=1;entryDx=0;entryDy=0;" parent="1" target="WTWF-vKirUXl5wXtsg50-36" edge="1">
          <mxGeometry width="50" height="50" relative="1" as="geometry">
            <mxPoint x="30" y="770" as="sourcePoint" />
            <mxPoint x="29.5" y="80" as="targetPoint" />
          </mxGeometry>
        </mxCell>
        <mxCell id="WTWF-vKirUXl5wXtsg50-42" value="200 dati delle candidature in json" style="text;html=1;align=center;verticalAlign=middle;whiteSpace=wrap;rounded=0;" parent="1" vertex="1">
          <mxGeometry x="113.13" y="732.5" width="130" height="30" as="geometry" />
        </mxCell>
        <mxCell id="WTWF-vKirUXl5wXtsg50-44" value="" style="endArrow=none;dashed=1;html=1;rounded=0;" parent="1" target="WTWF-vKirUXl5wXtsg50-43" edge="1">
          <mxGeometry width="50" height="50" relative="1" as="geometry">
            <mxPoint x="-336" y="760" as="sourcePoint" />
            <mxPoint x="-336.25" y="81" as="targetPoint" />
            <Array as="points">
              <mxPoint x="-336.25" y="151" />
            </Array>
          </mxGeometry>
        </mxCell>
        <mxCell id="WTWF-vKirUXl5wXtsg50-43" value="" style="rounded=0;whiteSpace=wrap;html=1;rotation=90;" parent="1" vertex="1">
          <mxGeometry x="-726.16" y="340.93" width="779.83" height="20" as="geometry" />
        </mxCell>
        <mxCell id="WTWF-vKirUXl5wXtsg50-48" value="" style="endArrow=classic;html=1;rounded=0;" parent="1" edge="1">
          <mxGeometry width="50" height="50" relative="1" as="geometry">
            <mxPoint x="-300" y="-27.5" as="sourcePoint" />
            <mxPoint x="10" y="-27.5" as="targetPoint" />
          </mxGeometry>
        </mxCell>
        <mxCell id="WTWF-vKirUXl5wXtsg50-49" value="accede alla sezione per personalizzare il profilo" style="text;html=1;align=center;verticalAlign=middle;whiteSpace=wrap;rounded=0;" parent="1" vertex="1">
          <mxGeometry x="-240" y="-58.5" width="140" height="30" as="geometry" />
        </mxCell>
        <mxCell id="WTWF-vKirUXl5wXtsg50-51" value="dati delle candidature" style="text;html=1;align=center;verticalAlign=middle;whiteSpace=wrap;rounded=0;" parent="1" vertex="1">
          <mxGeometry x="-230" y="725" width="130" height="30" as="geometry" />
        </mxCell>
        <mxCell id="WTWF-vKirUXl5wXtsg50-57" value="" style="rounded=0;whiteSpace=wrap;html=1;rotation=90;" parent="1" vertex="1">
          <mxGeometry x="-371.87" y="331.88" width="803.75" height="20" as="geometry" />
        </mxCell>
        <mxCell id="WTWF-vKirUXl5wXtsg50-58" value="" style="endArrow=classic;html=1;rounded=0;" parent="1" edge="1">
          <mxGeometry width="50" height="50" relative="1" as="geometry">
            <mxPoint x="340" y="-28.5" as="sourcePoint" />
            <mxPoint x="340" y="21.5" as="targetPoint" />
            <Array as="points">
              <mxPoint x="450" y="-28.5" />
              <mxPoint x="450" y="-8.5" />
              <mxPoint x="450" y="21.5" />
            </Array>
          </mxGeometry>
        </mxCell>
        <mxCell id="WTWF-vKirUXl5wXtsg50-59" value="verifica sessione" style="text;html=1;align=center;verticalAlign=middle;whiteSpace=wrap;rounded=0;" parent="1" vertex="1">
          <mxGeometry x="450" y="-18.5" width="80" height="30" as="geometry" />
        </mxCell>
        <mxCell id="WTWF-vKirUXl5wXtsg50-60" value="" style="endArrow=none;dashed=1;html=1;rounded=0;" parent="1" target="WTWF-vKirUXl5wXtsg50-3" edge="1">
          <mxGeometry width="50" height="50" relative="1" as="geometry">
            <mxPoint x="320" y="790" as="sourcePoint" />
            <mxPoint x="320" y="-80" as="targetPoint" />
          </mxGeometry>
        </mxCell>
        <mxCell id="WTWF-vKirUXl5wXtsg50-3" value="" style="rounded=0;whiteSpace=wrap;html=1;rotation=90;" parent="1" vertex="1">
          <mxGeometry x="-83.35" y="336.48" width="806.71" height="20" as="geometry" />
        </mxCell>
        <mxCell id="WToCkHycvVZVeie9zNSW-16" value="" style="endArrow=classic;html=1;rounded=0;" parent="1" edge="1">
          <mxGeometry width="50" height="50" relative="1" as="geometry">
            <mxPoint x="350" y="312" as="sourcePoint" />
            <mxPoint x="350" y="362" as="targetPoint" />
            <Array as="points">
              <mxPoint x="460" y="312" />
              <mxPoint x="460" y="332" />
              <mxPoint x="460" y="362" />
            </Array>
          </mxGeometry>
        </mxCell>
        <mxCell id="WToCkHycvVZVeie9zNSW-17" value="controllo campi POST" style="text;html=1;align=center;verticalAlign=middle;whiteSpace=wrap;rounded=0;" parent="1" vertex="1">
          <mxGeometry x="460" y="322" width="80" height="30" as="geometry" />
        </mxCell>
        <mxCell id="WToCkHycvVZVeie9zNSW-18" value="" style="endArrow=none;dashed=1;html=1;rounded=0;" parent="1" target="WTWF-vKirUXl5wXtsg50-21" edge="1">
          <mxGeometry width="50" height="50" relative="1" as="geometry">
            <mxPoint x="600" y="810" as="sourcePoint" />
            <mxPoint x="600" y="194" as="targetPoint" />
          </mxGeometry>
        </mxCell>
        <mxCell id="WTWF-vKirUXl5wXtsg50-21" value="" style="rounded=0;whiteSpace=wrap;html=1;rotation=90;" parent="1" vertex="1">
          <mxGeometry x="572.5" y="418" width="55" height="20" as="geometry" />
        </mxCell>
        <mxCell id="WToCkHycvVZVeie9zNSW-20" value="0" style="text;html=1;align=center;verticalAlign=middle;whiteSpace=wrap;rounded=0;" parent="1" vertex="1">
          <mxGeometry x="380" y="443" width="140" height="30" as="geometry" />
        </mxCell>
        <mxCell id="WToCkHycvVZVeie9zNSW-21" value="" style="endArrow=classic;html=1;rounded=0;" parent="1" edge="1">
          <mxGeometry width="50" height="50" relative="1" as="geometry">
            <mxPoint x="360" y="510" as="sourcePoint" />
            <mxPoint x="560" y="510" as="targetPoint" />
          </mxGeometry>
        </mxCell>
        <mxCell id="WToCkHycvVZVeie9zNSW-22" value="updateUtente()" style="text;html=1;align=center;verticalAlign=middle;whiteSpace=wrap;rounded=0;" parent="1" vertex="1">
          <mxGeometry x="390" y="480" width="140" height="30" as="geometry" />
        </mxCell>
        <mxCell id="WToCkHycvVZVeie9zNSW-23" value="" style="rounded=0;whiteSpace=wrap;html=1;rotation=90;" parent="1" vertex="1">
          <mxGeometry x="475.32" y="618.44" width="251.87" height="20" as="geometry" />
        </mxCell>
        <mxCell id="WToCkHycvVZVeie9zNSW-25" value="0" style="text;html=1;align=center;verticalAlign=middle;whiteSpace=wrap;rounded=0;" parent="1" vertex="1">
          <mxGeometry x="400" y="732.5" width="140" height="30" as="geometry" />
        </mxCell>
        <mxCell id="jB31LyJHZU9XboeA6eBy-1" value="" style="html=1;labelBackgroundColor=#ffffff;startArrow=none;startFill=0;startSize=6;endArrow=classic;endFill=1;endSize=6;jettySize=auto;orthogonalLoop=1;strokeWidth=1;dashed=1;fontSize=14;rounded=0;" edge="1" parent="1">
          <mxGeometry width="60" height="60" relative="1" as="geometry">
            <mxPoint x="280" y="720" as="sourcePoint" />
            <mxPoint x="80" y="720" as="targetPoint" />
          </mxGeometry>
        </mxCell>
        <mxCell id="jB31LyJHZU9XboeA6eBy-2" value="" style="html=1;labelBackgroundColor=#ffffff;startArrow=none;startFill=0;startSize=6;endArrow=classic;endFill=1;endSize=6;jettySize=auto;orthogonalLoop=1;strokeWidth=1;dashed=1;fontSize=14;rounded=0;" edge="1" parent="1">
          <mxGeometry width="60" height="60" relative="1" as="geometry">
            <mxPoint x="560" y="720" as="sourcePoint" />
            <mxPoint x="360" y="720" as="targetPoint" />
          </mxGeometry>
        </mxCell>
        <mxCell id="jB31LyJHZU9XboeA6eBy-3" value="" style="html=1;labelBackgroundColor=#ffffff;startArrow=none;startFill=0;startSize=6;endArrow=classic;endFill=1;endSize=6;jettySize=auto;orthogonalLoop=1;strokeWidth=1;dashed=1;fontSize=14;rounded=0;" edge="1" parent="1">
          <mxGeometry width="60" height="60" relative="1" as="geometry">
            <mxPoint x="550" y="438" as="sourcePoint" />
            <mxPoint x="350" y="438" as="targetPoint" />
          </mxGeometry>
        </mxCell>
        <mxCell id="jB31LyJHZU9XboeA6eBy-4" value="" style="html=1;labelBackgroundColor=#ffffff;startArrow=none;startFill=0;startSize=6;endArrow=classic;endFill=1;endSize=6;jettySize=auto;orthogonalLoop=1;strokeWidth=1;dashed=1;fontSize=14;rounded=0;" edge="1" parent="1">
          <mxGeometry width="60" height="60" relative="1" as="geometry">
            <mxPoint x="550" y="261" as="sourcePoint" />
            <mxPoint x="350" y="261" as="targetPoint" />
          </mxGeometry>
        </mxCell>
        <mxCell id="jB31LyJHZU9XboeA6eBy-5" value="" style="html=1;labelBackgroundColor=#ffffff;startArrow=none;startFill=0;startSize=6;endArrow=classic;endFill=1;endSize=6;jettySize=auto;orthogonalLoop=1;strokeWidth=1;dashed=1;fontSize=14;rounded=0;" edge="1" parent="1">
          <mxGeometry width="60" height="60" relative="1" as="geometry">
            <mxPoint x="550" y="175" as="sourcePoint" />
            <mxPoint x="350" y="175" as="targetPoint" />
          </mxGeometry>
        </mxCell>
        <mxCell id="jB31LyJHZU9XboeA6eBy-6" value="" style="html=1;labelBackgroundColor=#ffffff;startArrow=none;startFill=0;startSize=6;endArrow=classic;endFill=1;endSize=6;jettySize=auto;orthogonalLoop=1;strokeWidth=1;dashed=1;fontSize=14;rounded=0;" edge="1" parent="1">
          <mxGeometry width="60" height="60" relative="1" as="geometry">
            <mxPoint x="-70" y="720" as="sourcePoint" />
            <mxPoint x="-270" y="720" as="targetPoint" />
          </mxGeometry>
        </mxCell>
      </root>
    </mxGraphModel>
  </diagram>
</mxfile>
